<?xml version="1.0" encoding="utf-8"?>
<!-- Generator: Adobe Illustrator 15.0.0, SVG Export Plug-In . SVG Version: 6.00 Build 0)  -->
<!DOCTYPE svg PUBLIC "-//W3C//DTD SVG 1.1//EN" "http://www.w3.org/Graphics/SVG/1.1/DTD/svg11.dtd">
<svg version="1.1"
	 id="svg2" xmlns:inkscape="http://www.inkscape.org/namespaces/inkscape" sodipodi:docname="oshw-logo.svg" inkscape:version="0.48.1 r9760" xmlns:sodipodi="http://sodipodi.sourceforge.net/DTD/sodipodi-0.dtd" xmlns:svg="http://www.w3.org/2000/svg" xmlns:rdf="http://www.w3.org/1999/02/22-rdf-syntax-ns#" xmlns:cc="http://creativecommons.org/ns#" xmlns:dc="http://purl.org/dc/elements/1.1/"
	 xmlns="http://www.w3.org/2000/svg" xmlns:xlink="http://www.w3.org/1999/xlink" x="0px" y="0px" width="371.049px"
	 height="319.942px" viewBox="0 0 371.049 319.942" enable-background="new 0 0 371.049 319.942" xml:space="preserve">
<sodipodi:namedview  pagecolor="#ffffff" bordercolor="#666666" id="base" borderopacity="1.0" inkscape:pageopacity="0.0" inkscape:zoom="1.226764" inkscape:pageshadow="2" inkscape:cx="192.71176" inkscape:cy="-32.812977" inkscape:document-units="px" inkscape:current-layer="layer1" showgrid="false" inkscape:window-width="1722" inkscape:window-height="1466" inkscape:window-x="240" inkscape:window-y="100" inkscape:window-maximized="0" fit-margin-top="50" fit-margin-left="50" fit-margin-right="50" fit-margin-bottom="50">
	</sodipodi:namedview>
<g id="layer1" transform="translate(-179.33551,-173.42591)" inkscape:groupmode="layer" inkscape:label="Layer 1">
	<g id="g2995" transform="translate(14,-10)">
		<g id="g3012" transform="matrix(1.0112144,0,0,-1.0112144,-166.40143,667.64946)" inkscape:label="openHardware">
			<g id="g3014">
				<g>
					<g id="g3016">
						<g id="g3022" transform="translate(602.2539,351.748)">
							<path id="path3024" inkscape:connector-curvature="0" fill="#18284F" d="M0,0l-2.12,0.395
								C-2.661,0.494-3.546,0.659-4.087,0.76l-18.075,3.362c-0.541,0.101-1.131,0.608-1.311,1.128l-6.795,15.849
								c-0.253,0.489-0.204,1.259,0.107,1.714l10.563,15.392c0.311,0.454,0.821,1.196,1.131,1.65l1.221,1.778
								c0.309,0.453,0.246,1.142-0.143,1.531l-1.524,1.524l-1.414,1.414l-4.419,4.419l-1.414,1.414l-4.417,4.419l-1.415,1.415
								l-1.525,1.524c-0.388,0.389-1.078,0.453-1.531,0.142l-1.778-1.22c-0.454-0.312-1.196-0.82-1.649-1.132l-15.722-10.79
								c-0.453-0.312-1.228-0.367-1.722-0.125l-15.365,6.289c-0.522,0.173-1.03,0.757-1.132,1.297l-3.505,18.838
								c-0.1,0.541-0.266,1.426-0.365,1.966l-0.396,2.12c-0.1,0.54-0.633,0.982-1.182,0.982h-2.156h-2h-6.25h-2h-6.25h-2h-2.155
								c-0.55,0-1.082-0.442-1.182-0.983l-0.395-2.119c-0.101-0.54-0.265-1.425-0.365-1.966l-3.506-18.838
								c-0.101-0.54-0.609-1.124-1.132-1.297l-15.365-6.289c-0.494-0.242-1.269-0.187-1.722,0.125l-15.722,10.79
								c-0.454,0.312-1.196,0.82-1.649,1.132l-1.778,1.22c-0.453,0.311-1.143,0.247-1.531-0.142l-1.525-1.524l-1.414-1.415
								l-4.419-4.42l-1.414-1.414l-4.418-4.418l-1.414-1.414l-1.524-1.524c-0.389-0.389-0.453-1.078-0.142-1.531l1.22-1.778
								c0.31-0.454,0.82-1.196,1.131-1.65l10.563-15.392c0.311-0.455,0.359-1.225,0.107-1.714l-6.794-15.849
								c-0.181-0.52-0.771-1.027-1.312-1.128l-18.075-3.362c-0.541-0.101-1.426-0.266-1.967-0.365L-178.539,0
								c-0.541-0.102-0.983-0.633-0.983-1.184l0.001-2.156v-2v-6.25v-2v-6.248v-2v-2.155c0-0.55,0.443-1.083,0.984-1.183
								l2.119-0.394c0.541-0.101,1.426-0.266,1.967-0.367l17.531-3.262c0.541-0.1,1.119-0.612,1.284-1.137l6.748-16.859
								c0.242-0.493,0.185-1.27-0.127-1.723l-9.927-14.466c-0.312-0.454-0.822-1.196-1.132-1.648l-1.221-1.78
								c-0.31-0.453-0.247-1.142,0.142-1.531l1.525-1.524l1.414-1.414l4.421-4.421l1.414-1.414l4.417-4.416l1.414-1.415l1.526-1.524
								c0.388-0.388,1.078-0.452,1.531-0.141l1.777,1.219c0.453,0.311,1.195,0.821,1.649,1.131l14.152,9.712
								c0.453,0.311,1.212,0.336,1.685,0.058l2.938-1.654c0.484-0.26,1.281-0.677,1.771-0.927l3.043-1.558
								c0.491-0.25,1.063-0.039,1.274,0.469l1.306,3.158c0.211,0.508,0.555,1.34,0.766,1.848l12.277,29.669
								c0.211,0.506,0.555,1.339,0.766,1.846l0.869,2.102c0.211,0.508-0.001,1.158-0.47,1.445l-1.94,1.187
								c-0.358,0.218-0.845,0.595-1.226,0.939c-6.999,4.483-11.641,12.323-11.641,21.25c0,13.932,11.294,25.226,25.225,25.226
								c13.932,0,25.226-11.294,25.226-25.226c0-8.928-4.643-16.767-11.642-21.25c-0.38-0.344-0.867-0.72-1.226-0.939l-1.939-1.187
								c-0.468-0.287-0.68-0.937-0.47-1.445l0.87-2.102c0.21-0.508,0.554-1.34,0.764-1.846l12.277-29.669
								c0.211-0.508,0.555-1.34,0.765-1.848l1.308-3.158c0.211-0.508,0.783-0.719,1.274-0.469l3.042,1.558
								c0.492,0.25,1.288,0.667,1.772,0.927l2.937,1.654c0.474,0.278,1.233,0.253,1.686-0.058l14.152-9.712
								c0.453-0.31,1.197-0.82,1.648-1.131l1.779-1.219c0.453-0.311,1.143-0.247,1.531,0.141l1.524,1.524l1.415,1.415l4.417,4.418
								l1.414,1.414l4.421,4.419l1.414,1.414l1.526,1.524c0.388,0.388,0.452,1.078,0.141,1.531l-1.221,1.78
								c-0.311,0.452-0.821,1.194-1.132,1.648l-9.928,14.466c-0.311,0.453-0.369,1.229-0.127,1.723l6.748,16.859
								c0.166,0.525,0.744,1.037,1.284,1.137l17.532,3.262c0.541,0.101,1.426,0.266,1.967,0.367l2.118,0.394
								c0.541,0.1,0.983,0.633,0.983,1.183v2.155v2v6.248v2l0.001,6.25v2l0.001,2.156C0.983-0.633,0.541-0.102,0,0"/>
						</g>
						<g id="g3026" transform="translate(575.0156,351.7285)">
							<path id="path3028" inkscape:connector-curvature="0" fill="#405FA8" d="M0.001,0c-1.75,8.039-5.014,15.512-9.491,22.096
								L4.084,41.879l-5.833,5.832l-5.833,5.835l-20.045-13.757c-6.511,4.207-13.831,7.268-21.687,8.865l0.002,0.001l-4.469,24.025
								h-8.249h-8.25l-4.47-24.025l0.003-0.001c-7.856-1.597-15.177-4.658-21.688-8.865l-20.043,13.757l-5.834-5.835l-5.833-5.832
								l13.575-19.783c-4.479-6.584-7.742-14.057-9.492-22.096l-23.22-4.319l0.001-8.251v-8.248l22.791-4.242
								c1.538-8.419,4.74-16.253,9.247-23.158l-12.903-18.801l5.834-5.833l5.833-5.833l18.553,12.732
								c2.246-1.541,4.592-2.945,7.032-4.193l13.043,31.516c-8.728,5.336-14.554,14.954-14.554,25.935
								c0,16.775,13.6,30.375,30.376,30.375c16.773,0,30.374-13.6,30.374-30.375c0-10.981-5.825-20.599-14.555-25.935l13.042-31.516
								c2.44,1.248,4.786,2.652,7.032,4.193l18.554-12.732l5.833,5.833l5.835,5.833L-8.818-48.218
								c4.506,6.905,7.709,14.739,9.248,23.158l22.791,4.242v8.248v8.251L0.001,0z"/>
						</g>
					</g>
				</g>
			</g>
		</g>
		<g enable-background="new    ">
			<path fill="#405FA8" d="M320.315,444.943v-30.959l3.438-1.504v9.84c1.346-0.959,2.893-1.439,4.641-1.439
				c2.234,0,4.146,0.788,5.736,2.363c1.59,1.576,2.385,3.48,2.385,5.715v14.48l-3.438,1.504v-15.92
				c-0.029-1.332-0.487-2.435-1.375-3.309c-0.917-0.902-1.998-1.354-3.244-1.354c-1.332,0-2.449,0.451-3.352,1.354
				c-0.888,0.889-1.339,1.948-1.354,3.18v0.129v14.416L320.315,444.943z"/>
			<path fill="#405FA8" d="M345.181,438.607c0,0.476,0.186,0.966,0.559,1.471c0.688,0.923,1.783,1.385,3.287,1.385
				c0.917,0,1.726-0.215,2.428-0.645l1.289,3.244c-1.117,0.588-2.356,0.881-3.717,0.881c-2.148,0-4.054-0.787-5.715-2.363
				c-1.117-1.146-1.676-2.463-1.676-3.953c0-0.057,0-0.114,0-0.171c0-2.67,1.37-4.562,4.111-5.675l8.736-3.607
				c0-1.36-0.451-2.503-1.354-3.427s-2.041-1.386-3.416-1.386c-1.203,0-2.263,0.451-3.18,1.354
				c-0.888,0.874-1.347,1.977-1.375,3.309v0.301l-3.438,1.525v-1.891c0-2.005,0.859-3.924,2.578-5.758
				c1.461-1.547,3.309-2.32,5.543-2.32s4.14,0.788,5.715,2.363c1.575,1.576,2.363,3.48,2.363,5.715v14.48l-3.438,1.504v-12.054
				l-7.085,2.883C345.92,436.479,345.181,437.424,345.181,438.607z"/>
			<path fill="#405FA8" d="M363.129,444.943v-15.984c0-2.234,0.787-4.139,2.363-5.715c1.574-1.575,3.48-2.363,5.715-2.363
				c2.277,0,4.189,0.788,5.736,2.363c1.59,1.633,2.385,3.538,2.385,5.715v0.086l-3.438,1.504v-1.525
				c-0.029-1.332-0.488-2.435-1.375-3.309c-0.918-0.902-1.998-1.354-3.244-1.354c-1.305,0-2.414,0.451-3.33,1.354
				c-0.918,0.902-1.375,1.984-1.375,3.244c0,0.029,0,0.051,0,0.064v14.416L363.129,444.943z"/>
			<path fill="#405FA8" d="M400.735,412.48v24.385c0,2.234-0.795,4.14-2.385,5.715c-1.59,1.576-3.502,2.363-5.736,2.363
				s-4.139-0.787-5.715-2.363c-1.575-1.575-2.363-3.48-2.363-5.715v-7.906c0-2.234,0.788-4.139,2.363-5.715
				c1.576-1.575,3.48-2.363,5.715-2.363c1.762,0,3.323,0.487,4.684,1.461v-8.357L400.735,412.48z M387.973,436.8
				c0,1.318,0.48,2.421,1.439,3.309c0.975,0.902,2.084,1.354,3.33,1.354c1.203,0,2.264-0.451,3.18-1.354
				c0.889-0.873,1.347-1.977,1.375-3.309v-7.777c-0.028-1.332-0.486-2.435-1.375-3.309c-0.916-0.902-2.062-1.354-3.438-1.354
				c-1.203,0-2.256,0.451-3.158,1.354c-0.888,0.889-1.339,1.948-1.354,3.18v0.129V436.8z"/>
			<path fill="#405FA8" d="M404.052,439.078v-16.693l3.438-1.504l-0.021,18.111c0,0.717,0.236,1.325,0.709,1.826
				c0.473,0.502,1.031,0.752,1.676,0.752c0.673,0,1.246-0.25,1.719-0.752c0.487-0.516,0.73-1.117,0.73-1.805v-0.021l0.021-16.607
				l3.438-1.504l-0.021,18.111c0,0.717,0.236,1.325,0.709,1.826c0.473,0.502,1.031,0.752,1.676,0.752
				c0.659,0,1.231-0.25,1.719-0.752c0.487-0.501,0.73-1.109,0.73-1.826l0.021-16.607l3.438-1.504v18.219
				c0,1.604-0.573,2.979-1.719,4.125c-1.146,1.146-2.528,1.719-4.146,1.719c-1.676,0-3.058-0.559-4.146-1.676
				c-1.146,1.117-2.521,1.676-4.125,1.676c-1.719,0-3.115-0.559-4.189-1.676C404.618,442.136,404.067,440.74,404.052,439.078z"/>
			<path fill="#405FA8" d="M430.809,438.607c0,0.476,0.186,0.966,0.559,1.471c0.688,0.923,1.783,1.385,3.287,1.385
				c0.916,0,1.726-0.215,2.428-0.645l1.289,3.244c-1.117,0.588-2.356,0.881-3.717,0.881c-2.148,0-4.054-0.787-5.715-2.363
				c-1.117-1.146-1.676-2.463-1.676-3.953c0-0.057,0-0.114,0-0.171c0-2.67,1.37-4.562,4.111-5.675l8.736-3.607
				c0-1.36-0.451-2.503-1.354-3.427s-2.041-1.386-3.416-1.386c-1.203,0-2.264,0.451-3.18,1.354
				c-0.889,0.874-1.347,1.977-1.375,3.309v0.301l-3.438,1.525v-1.891c0-2.005,0.859-3.924,2.578-5.758
				c1.461-1.547,3.309-2.32,5.543-2.32s4.139,0.788,5.715,2.363c1.575,1.576,2.363,3.48,2.363,5.715v14.48l-3.438,1.504v-12.054
				l-7.085,2.883C431.548,436.479,430.809,437.424,430.809,438.607z"/>
			<path fill="#405FA8" d="M448.757,444.943v-15.984c0-2.234,0.788-4.139,2.363-5.715c1.575-1.575,3.48-2.363,5.715-2.363
				c2.277,0,4.189,0.788,5.736,2.363c1.59,1.633,2.385,3.538,2.385,5.715v0.086l-3.438,1.504v-1.525
				c-0.028-1.332-0.487-2.435-1.375-3.309c-0.917-0.902-1.998-1.354-3.244-1.354c-1.304,0-2.413,0.451-3.33,1.354
				s-1.375,1.984-1.375,3.244c0,0.029,0,0.051,0,0.064v14.416L448.757,444.943z"/>
			<path fill="#405FA8" d="M478.372,441.463c1.203,0,2.262-0.451,3.18-1.354c0.887-0.873,1.346-1.977,1.375-3.309V436.5l3.438-1.525
				v1.891c0,2.006-0.859,3.925-2.578,5.758c-1.461,1.547-3.309,2.32-5.543,2.32s-4.141-0.787-5.715-2.363
				c-1.576-1.575-2.363-3.48-2.363-5.715v-7.906c0-2.234,0.787-4.139,2.363-5.715c1.574-1.575,3.48-2.363,5.715-2.363
				c2.148,0,4.061,0.788,5.736,2.363c1.59,1.49,2.385,3.395,2.385,5.715v2.02l-12.762,5.674c0,1.36,0.451,2.502,1.354,3.426
				C475.858,441.001,476.997,441.463,478.372,441.463z M478.114,424.361c-1.203,0-2.256,0.451-3.158,1.354s-1.354,1.984-1.354,3.244
				c0,0.029,0,0.051,0,0.064v3.867l9.303-4.137c-0.072-1.205-0.523-2.218-1.354-3.036
				C480.633,424.813,479.489,424.361,478.114,424.361z"/>
		</g>
		<g enable-background="new    ">
			<path fill="#405FA8" d="M216.036,428.284c0-2.234,0.788-4.139,2.363-5.715c1.575-1.575,3.48-2.363,5.715-2.363
				s4.146,0.788,5.736,2.363c1.59,1.576,2.385,3.48,2.385,5.715v7.906c0,2.234-0.795,4.14-2.385,5.715
				c-1.59,1.576-3.502,2.363-5.736,2.363s-4.14-0.787-5.715-2.363c-1.576-1.575-2.363-3.48-2.363-5.715V428.284z M219.473,436.126
				c0,1.318,0.479,2.421,1.439,3.309c0.974,0.902,2.084,1.354,3.33,1.354c1.203,0,2.263-0.451,3.18-1.354
				c0.888-0.873,1.346-1.977,1.375-3.309v-7.777c-0.029-1.332-0.487-2.435-1.375-3.309c-0.917-0.902-2.062-1.354-3.438-1.354
				c-1.203,0-2.256,0.451-3.158,1.354c-0.888,0.889-1.339,1.948-1.354,3.18v0.129V436.126z"/>
			<path fill="#405FA8" d="M238.543,452.669v-24.385c0-2.234,0.795-4.139,2.385-5.715c1.59-1.575,3.502-2.363,5.736-2.363
				s4.139,0.788,5.715,2.363c1.575,1.576,2.363,3.48,2.363,5.715v7.906c0,2.234-0.788,4.14-2.363,5.715
				c-1.576,1.576-3.48,2.363-5.715,2.363c-1.762,0-3.323-0.486-4.684-1.461v8.357L238.543,452.669z M241.98,436.126
				c0,1.318,0.479,2.421,1.439,3.309c0.974,0.902,2.084,1.354,3.33,1.354c1.203,0,2.263-0.451,3.18-1.354
				c0.888-0.873,1.346-1.977,1.375-3.309v-7.777c-0.029-1.332-0.487-2.435-1.375-3.309c-0.917-0.902-2.062-1.354-3.438-1.354
				c-1.203,0-2.256,0.451-3.158,1.354c-0.888,0.889-1.339,1.948-1.354,3.18v0.129V436.126z"/>
			<path fill="#405FA8" d="M269.257,440.788c1.203,0,2.263-0.451,3.18-1.354c0.888-0.873,1.346-1.977,1.375-3.309v-0.301
				l3.438-1.525v1.891c0,2.006-0.859,3.925-2.578,5.758c-1.461,1.547-3.309,2.32-5.543,2.32s-4.14-0.787-5.715-2.363
				c-1.576-1.575-2.363-3.48-2.363-5.715v-7.906c0-2.234,0.788-4.139,2.363-5.715c1.575-1.575,3.48-2.363,5.715-2.363
				c2.148,0,4.061,0.788,5.736,2.363c1.59,1.49,2.385,3.395,2.385,5.715v2.02l-12.762,5.674c0,1.36,0.451,2.502,1.354,3.426
				C266.743,440.326,267.882,440.788,269.257,440.788z M268.999,423.686c-1.203,0-2.256,0.451-3.158,1.354s-1.354,1.984-1.354,3.244
				c0,0.029,0,0.051,0,0.064v3.867l9.303-4.137c-0.072-1.205-0.523-2.218-1.354-3.036
				C271.52,424.138,270.374,423.686,268.999,423.686z"/>
			<path fill="#405FA8" d="M283.557,444.268v-15.984c0-2.234,0.788-4.139,2.363-5.715c1.575-1.575,3.48-2.363,5.715-2.363
				s4.146,0.788,5.736,2.363c1.59,1.576,2.385,3.48,2.385,5.715v14.48l-3.438,1.504v-15.92c-0.029-1.332-0.487-2.435-1.375-3.309
				c-0.917-0.902-1.998-1.354-3.244-1.354c-1.289,0-2.399,0.459-3.33,1.375c-0.917,0.889-1.375,1.963-1.375,3.223
				c0,0.029,0,0.051,0,0.064v14.416L283.557,444.268z"/>
		</g>
		<g enable-background="new    ">
			<path fill="none" stroke="#405FA8" stroke-width="1.4" d="M216.036,428.284c0-2.234,0.788-4.139,2.363-5.715
				c1.575-1.575,3.48-2.363,5.715-2.363s4.146,0.788,5.736,2.363c1.59,1.576,2.385,3.48,2.385,5.715v7.906
				c0,2.234-0.795,4.14-2.385,5.715c-1.59,1.576-3.502,2.363-5.736,2.363s-4.14-0.787-5.715-2.363
				c-1.576-1.575-2.363-3.48-2.363-5.715V428.284z M219.473,436.126c0,1.318,0.479,2.421,1.439,3.309
				c0.974,0.902,2.084,1.354,3.33,1.354c1.203,0,2.263-0.451,3.18-1.354c0.888-0.873,1.346-1.977,1.375-3.309v-7.777
				c-0.029-1.332-0.487-2.435-1.375-3.309c-0.917-0.902-2.062-1.354-3.438-1.354c-1.203,0-2.256,0.451-3.158,1.354
				c-0.888,0.889-1.339,1.948-1.354,3.18v0.129V436.126z"/>
			<path fill="none" stroke="#405FA8" stroke-width="1.4" d="M238.543,452.669v-24.385c0-2.234,0.795-4.139,2.385-5.715
				c1.59-1.575,3.502-2.363,5.736-2.363s4.139,0.788,5.715,2.363c1.575,1.576,2.363,3.48,2.363,5.715v7.906
				c0,2.234-0.788,4.14-2.363,5.715c-1.576,1.576-3.48,2.363-5.715,2.363c-1.762,0-3.323-0.486-4.684-1.461v8.357L238.543,452.669z
				 M241.98,436.126c0,1.318,0.479,2.421,1.439,3.309c0.974,0.902,2.084,1.354,3.33,1.354c1.203,0,2.263-0.451,3.18-1.354
				c0.888-0.873,1.346-1.977,1.375-3.309v-7.777c-0.029-1.332-0.487-2.435-1.375-3.309c-0.917-0.902-2.062-1.354-3.438-1.354
				c-1.203,0-2.256,0.451-3.158,1.354c-0.888,0.889-1.339,1.948-1.354,3.18v0.129V436.126z"/>
			<path fill="none" stroke="#405FA8" stroke-width="1.4" d="M269.257,440.788c1.203,0,2.263-0.451,3.18-1.354
				c0.888-0.873,1.346-1.977,1.375-3.309v-0.301l3.438-1.525v1.891c0,2.006-0.859,3.925-2.578,5.758
				c-1.461,1.547-3.309,2.32-5.543,2.32s-4.14-0.787-5.715-2.363c-1.576-1.575-2.363-3.48-2.363-5.715v-7.906
				c0-2.234,0.788-4.139,2.363-5.715c1.575-1.575,3.48-2.363,5.715-2.363c2.148,0,4.061,0.788,5.736,2.363
				c1.59,1.49,2.385,3.395,2.385,5.715v2.02l-12.762,5.674c0,1.36,0.451,2.502,1.354,3.426
				C266.743,440.326,267.882,440.788,269.257,440.788z M268.999,423.686c-1.203,0-2.256,0.451-3.158,1.354s-1.354,1.984-1.354,3.244
				c0,0.029,0,0.051,0,0.064v3.867l9.303-4.137c-0.072-1.205-0.523-2.218-1.354-3.036
				C271.52,424.138,270.374,423.686,268.999,423.686z"/>
			<path fill="none" stroke="#405FA8" stroke-width="1.4" d="M283.557,444.268v-15.984c0-2.234,0.788-4.139,2.363-5.715
				c1.575-1.575,3.48-2.363,5.715-2.363s4.146,0.788,5.736,2.363c1.59,1.576,2.385,3.48,2.385,5.715v14.48l-3.438,1.504v-15.92
				c-0.029-1.332-0.487-2.435-1.375-3.309c-0.917-0.902-1.998-1.354-3.244-1.354c-1.289,0-2.399,0.459-3.33,1.375
				c-0.917,0.889-1.375,1.963-1.375,3.223c0,0.029,0,0.051,0,0.064v14.416L283.557,444.268z"/>
		</g>
	</g>
</g>
</svg>
