<?xml version="1.0" encoding="UTF-8" standalone="no"?>
<!-- Generator: Adobe Illustrator 15.0.0, SVG Export Plug-In . SVG Version: 6.00 Build 0)  -->

<svg
   xmlns:dc="http://purl.org/dc/elements/1.1/"
   xmlns:cc="http://creativecommons.org/ns#"
   xmlns:rdf="http://www.w3.org/1999/02/22-rdf-syntax-ns#"
   xmlns:svg="http://www.w3.org/2000/svg"
   xmlns="http://www.w3.org/2000/svg"
   xmlns:sodipodi="http://sodipodi.sourceforge.net/DTD/sodipodi-0.dtd"
   xmlns:inkscape="http://www.inkscape.org/namespaces/inkscape"
   version="1.1"
   id="svg2"
   sodipodi:docname="oshw-logo-gray.svg"
   inkscape:version="0.48.1 r9760"
   x="0px"
   y="0px"
   width="371.049px"
   height="319.942px"
   viewBox="0 0 371.049 319.942"
   enable-background="new 0 0 371.049 319.942"
   xml:space="preserve"><metadata
   id="metadata55"><rdf:RDF><cc:Work
       rdf:about=""><dc:format>image/svg+xml</dc:format><dc:type
         rdf:resource="http://purl.org/dc/dcmitype/StillImage" /><dc:title></dc:title></cc:Work></rdf:RDF></metadata><defs
   id="defs53">
		
		
		
		
	
			
		
				
			</defs>
<sodipodi:namedview
   pagecolor="#ffffff"
   bordercolor="#666666"
   id="base"
   borderopacity="1.0"
   inkscape:pageopacity="0.0"
   inkscape:zoom="4.0351065"
   inkscape:pageshadow="2"
   inkscape:cx="139.67689"
   inkscape:cy="159.97099"
   inkscape:document-units="px"
   inkscape:current-layer="layer1"
   showgrid="false"
   inkscape:window-width="2106"
   inkscape:window-height="1466"
   inkscape:window-x="240"
   inkscape:window-y="100"
   inkscape:window-maximized="0"
   fit-margin-top="50"
   fit-margin-left="50"
   fit-margin-right="50"
   fit-margin-bottom="50">
	</sodipodi:namedview>
<g
   id="layer1"
   transform="translate(-179.33551,-173.42591)"
   inkscape:groupmode="layer"
   inkscape:label="Layer 1">
	<g
   id="g8"
   transform="matrix(1.0112144,0,0,-1.0112144,-152.40143,657.64946)"
   style="stroke:none;stroke-opacity:1;fill:#747474;fill-opacity:1"
   mask="none">
					<g
   id="g3016"
   style="stroke:none;stroke-opacity:1;fill:#747474;fill-opacity:1">
						<g
   transform="translate(602.2539,351.748)"
   id="g3022"
   style="stroke:none;stroke-opacity:1;fill:#747474;fill-opacity:1">
							<path
   style="fill:#747474;stroke:none;stroke-opacity:1;opacity:1;fill-opacity:1"
   d="M 0,0 -2.12,0.395 C -2.661,0.494 -3.546,0.659 -4.087,0.76 l -18.075,3.362 c -0.541,0.101 -1.131,0.608 -1.311,1.128 l -6.795,15.849 c -0.253,0.489 -0.204,1.259 0.107,1.714 l 10.563,15.392 c 0.311,0.454 0.821,1.196 1.131,1.65 l 1.221,1.778 c 0.309,0.453 0.246,1.142 -0.143,1.531 l -1.524,1.524 -1.414,1.414 -4.419,4.419 -1.414,1.414 -4.417,4.419 -1.415,1.415 -1.525,1.524 c -0.388,0.389 -1.078,0.453 -1.531,0.142 l -1.778,-1.22 c -0.454,-0.312 -1.196,-0.82 -1.649,-1.132 l -15.722,-10.79 c -0.453,-0.312 -1.228,-0.367 -1.722,-0.125 l -15.365,6.289 c -0.522,0.173 -1.03,0.757 -1.132,1.297 l -3.505,18.838 c -0.1,0.541 -0.266,1.426 -0.365,1.966 l -0.396,2.12 c -0.1,0.54 -0.633,0.982 -1.182,0.982 h -2.156 -2 -6.25 -2 -6.25 -2 -2.155 c -0.55,0 -1.082,-0.442 -1.182,-0.983 l -0.395,-2.119 c -0.101,-0.54 -0.265,-1.425 -0.365,-1.966 l -3.506,-18.838 c -0.101,-0.54 -0.609,-1.124 -1.132,-1.297 l -15.365,-6.289 c -0.494,-0.242 -1.269,-0.187 -1.722,0.125 l -15.722,10.79 c -0.454,0.312 -1.196,0.82 -1.649,1.132 l -1.778,1.22 c -0.453,0.311 -1.143,0.247 -1.531,-0.142 l -1.525,-1.524 -1.414,-1.415 -4.419,-4.42 -1.414,-1.414 -4.418,-4.418 -1.414,-1.414 -1.524,-1.524 c -0.389,-0.389 -0.453,-1.078 -0.142,-1.531 l 1.22,-1.778 c 0.31,-0.454 0.82,-1.196 1.131,-1.65 l 10.563,-15.392 c 0.311,-0.455 0.359,-1.225 0.107,-1.714 L -155.065,5.25 c -0.181,-0.52 -0.771,-1.027 -1.312,-1.128 L -174.452,0.76 c -0.541,-0.101 -1.426,-0.266 -1.967,-0.365 L -178.539,0 c -0.541,-0.102 -0.983,-0.633 -0.983,-1.184 l 0.001,-2.156 v -2 -6.25 -2 -6.248 -2 -2.155 c 0,-0.55 0.443,-1.083 0.984,-1.183 l 2.119,-0.394 c 0.541,-0.101 1.426,-0.266 1.967,-0.367 l 17.531,-3.262 c 0.541,-0.1 1.119,-0.612 1.284,-1.137 l 6.748,-16.859 c 0.242,-0.493 0.185,-1.27 -0.127,-1.723 l -9.927,-14.466 c -0.312,-0.454 -0.822,-1.196 -1.132,-1.648 l -1.221,-1.78 c -0.31,-0.453 -0.247,-1.142 0.142,-1.531 l 1.525,-1.524 1.414,-1.414 4.421,-4.421 1.414,-1.414 4.417,-4.416 1.414,-1.415 1.526,-1.524 c 0.388,-0.388 1.078,-0.452 1.531,-0.141 l 1.777,1.219 c 0.453,0.311 1.195,0.821 1.649,1.131 l 14.152,9.712 c 0.453,0.311 1.212,0.336 1.685,0.058 l 2.938,-1.654 c 0.484,-0.26 1.281,-0.677 1.771,-0.927 l 3.043,-1.558 c 0.491,-0.25 1.063,-0.039 1.274,0.469 l 1.306,3.158 c 0.211,0.508 0.555,1.34 0.766,1.848 l 12.277,29.669 c 0.211,0.506 0.555,1.339 0.766,1.846 l 0.869,2.102 c 0.211,0.508 -10e-4,1.158 -0.47,1.445 l -1.94,1.187 c -0.358,0.218 -0.845,0.595 -1.226,0.939 -6.999,4.483 -11.641,12.323 -11.641,21.25 0,13.932 11.294,25.226 25.225,25.226 13.932,0 25.226,-11.294 25.226,-25.226 0,-8.928 -4.643,-16.767 -11.642,-21.25 -0.38,-0.344 -0.867,-0.72 -1.226,-0.939 l -1.939,-1.187 c -0.468,-0.287 -0.68,-0.937 -0.47,-1.445 l 0.87,-2.102 c 0.21,-0.508 0.554,-1.34 0.764,-1.846 l 12.277,-29.669 c 0.211,-0.508 0.555,-1.34 0.765,-1.848 l 1.308,-3.158 c 0.211,-0.508 0.783,-0.719 1.274,-0.469 l 3.042,1.558 c 0.492,0.25 1.288,0.667 1.772,0.927 l 2.937,1.654 c 0.474,0.278 1.233,0.253 1.686,-0.058 l 14.152,-9.712 c 0.453,-0.31 1.197,-0.82 1.648,-1.131 l 1.779,-1.219 c 0.453,-0.311 1.143,-0.247 1.531,0.141 l 1.524,1.524 1.415,1.415 4.417,4.418 1.414,1.414 4.421,4.419 1.414,1.414 1.526,1.524 c 0.388,0.388 0.452,1.078 0.141,1.531 l -1.221,1.78 c -0.311,0.452 -0.821,1.194 -1.132,1.648 l -9.928,14.466 c -0.311,0.453 -0.369,1.229 -0.127,1.723 l 6.748,16.859 c 0.166,0.525 0.744,1.037 1.284,1.137 l 17.532,3.262 c 0.541,0.101 1.426,0.266 1.967,0.367 l 2.118,0.394 c 0.541,0.1 0.983,0.633 0.983,1.183 v 2.155 2 6.248 2 l 0.001,6.25 v 2 l 0.001,2.156 C 0.983,-0.633 0.541,-0.102 0,0"
   inkscape:connector-curvature="0"
   id="path3024" />
						</g>
						<g
   transform="translate(575.0156,351.7285)"
   id="g3026"
   style="stroke:none;stroke-opacity:1;fill:#747474;fill-opacity:1">
							<path
   style="fill:#ffffff;stroke:none;stroke-opacity:1;fill-rule:nonzero;fill-opacity:1"
   d="m 0.001,0 c -1.75,8.039 -5.014,15.512 -9.491,22.096 l 13.574,19.783 -5.833,5.832 -5.833,5.835 -20.045,-13.757 c -6.511,4.207 -13.831,7.268 -21.687,8.865 l 0.002,10e-4 -4.469,24.025 h -8.249 -8.25 l -4.47,-24.025 0.003,-10e-4 c -7.856,-1.597 -15.177,-4.658 -21.688,-8.865 l -20.043,13.757 -5.834,-5.835 -5.833,-5.832 13.575,-19.783 C -119.049,15.512 -122.312,8.039 -124.062,0 l -23.22,-4.319 0.001,-8.251 v -8.248 l 22.791,-4.242 c 1.538,-8.419 4.74,-16.253 9.247,-23.158 l -12.903,-18.801 5.834,-5.833 5.833,-5.833 18.553,12.732 c 2.246,-1.541 4.592,-2.945 7.032,-4.193 l 13.043,31.516 c -8.728,5.336 -14.554,14.954 -14.554,25.935 0,16.775 13.6,30.375 30.376,30.375 16.773,0 30.374,-13.6 30.374,-30.375 0,-10.981 -5.825,-20.599 -14.555,-25.935 l 13.042,-31.516 c 2.44,1.248 4.786,2.652 7.032,4.193 l 18.554,-12.732 5.833,5.833 5.835,5.833 -12.904,18.801 c 4.506,6.905 7.709,14.739 9.248,23.158 l 22.791,4.242 v 8.248 8.251 L 0.001,0 z"
   inkscape:connector-curvature="0"
   id="path3028" />
						</g>
					</g>
				</g><g
   id="g15"
   enable-background="new    "
   transform="translate(14,-10)">
			<path
   style="fill:#747474;fill-opacity:1"
   inkscape:connector-curvature="0"
   id="path17"
   d="m 320.315,444.943 v -30.959 l 3.438,-1.504 v 9.84 c 1.346,-0.959 2.893,-1.439 4.641,-1.439 2.234,0 4.146,0.788 5.736,2.363 1.59,1.576 2.385,3.48 2.385,5.715 v 14.48 l -3.438,1.504 v -15.92 c -0.029,-1.332 -0.487,-2.435 -1.375,-3.309 -0.917,-0.902 -1.998,-1.354 -3.244,-1.354 -1.332,0 -2.449,0.451 -3.352,1.354 -0.888,0.889 -1.339,1.948 -1.354,3.18 v 0.129 14.416 l -3.437,1.504 z" />
			<path
   style="fill:#747474;fill-opacity:1"
   inkscape:connector-curvature="0"
   id="path19"
   d="m 345.181,438.607 c 0,0.476 0.186,0.966 0.559,1.471 0.688,0.923 1.783,1.385 3.287,1.385 0.917,0 1.726,-0.215 2.428,-0.645 l 1.289,3.244 c -1.117,0.588 -2.356,0.881 -3.717,0.881 -2.148,0 -4.054,-0.787 -5.715,-2.363 -1.117,-1.146 -1.676,-2.463 -1.676,-3.953 0,-0.057 0,-0.114 0,-0.171 0,-2.67 1.37,-4.562 4.111,-5.675 l 8.736,-3.607 c 0,-1.36 -0.451,-2.503 -1.354,-3.427 -0.903,-0.924 -2.041,-1.386 -3.416,-1.386 -1.203,0 -2.263,0.451 -3.18,1.354 -0.888,0.874 -1.347,1.977 -1.375,3.309 v 0.301 l -3.438,1.525 v -1.891 c 0,-2.005 0.859,-3.924 2.578,-5.758 1.461,-1.547 3.309,-2.32 5.543,-2.32 2.234,0 4.14,0.788 5.715,2.363 1.575,1.576 2.363,3.48 2.363,5.715 v 14.48 l -3.438,1.504 v -12.054 l -7.085,2.883 c -1.476,0.707 -2.215,1.652 -2.215,2.835 z" />
			<path
   style="fill:#747474;fill-opacity:1"
   inkscape:connector-curvature="0"
   id="path21"
   d="m 363.129,444.943 v -15.984 c 0,-2.234 0.787,-4.139 2.363,-5.715 1.574,-1.575 3.48,-2.363 5.715,-2.363 2.277,0 4.189,0.788 5.736,2.363 1.59,1.633 2.385,3.538 2.385,5.715 v 0.086 l -3.438,1.504 v -1.525 c -0.029,-1.332 -0.488,-2.435 -1.375,-3.309 -0.918,-0.902 -1.998,-1.354 -3.244,-1.354 -1.305,0 -2.414,0.451 -3.33,1.354 -0.918,0.902 -1.375,1.984 -1.375,3.244 0,0.029 0,0.051 0,0.064 v 14.416 l -3.437,1.504 z" />
			<path
   style="fill:#747474;fill-opacity:1"
   inkscape:connector-curvature="0"
   id="path23"
   d="m 400.735,412.48 v 24.385 c 0,2.234 -0.795,4.14 -2.385,5.715 -1.59,1.576 -3.502,2.363 -5.736,2.363 -2.234,0 -4.139,-0.787 -5.715,-2.363 -1.575,-1.575 -2.363,-3.48 -2.363,-5.715 v -7.906 c 0,-2.234 0.788,-4.139 2.363,-5.715 1.576,-1.575 3.48,-2.363 5.715,-2.363 1.762,0 3.323,0.487 4.684,1.461 v -8.357 l 3.437,-1.505 z m -12.762,24.32 c 0,1.318 0.48,2.421 1.439,3.309 0.975,0.902 2.084,1.354 3.33,1.354 1.203,0 2.264,-0.451 3.18,-1.354 0.889,-0.873 1.347,-1.977 1.375,-3.309 v -7.777 c -0.028,-1.332 -0.486,-2.435 -1.375,-3.309 -0.916,-0.902 -2.062,-1.354 -3.438,-1.354 -1.203,0 -2.256,0.451 -3.158,1.354 -0.888,0.889 -1.339,1.948 -1.354,3.18 v 0.129 7.777 z" />
			<path
   style="fill:#747474;fill-opacity:1"
   inkscape:connector-curvature="0"
   id="path25"
   d="m 404.052,439.078 v -16.693 l 3.438,-1.504 -0.021,18.111 c 0,0.717 0.236,1.325 0.709,1.826 0.473,0.502 1.031,0.752 1.676,0.752 0.673,0 1.246,-0.25 1.719,-0.752 0.487,-0.516 0.73,-1.117 0.73,-1.805 v -0.021 l 0.021,-16.607 3.438,-1.504 -0.021,18.111 c 0,0.717 0.236,1.325 0.709,1.826 0.473,0.502 1.031,0.752 1.676,0.752 0.659,0 1.231,-0.25 1.719,-0.752 0.487,-0.501 0.73,-1.109 0.73,-1.826 l 0.021,-16.607 3.438,-1.504 V 439.1 c 0,1.604 -0.573,2.979 -1.719,4.125 -1.146,1.146 -2.528,1.719 -4.146,1.719 -1.676,0 -3.058,-0.559 -4.146,-1.676 -1.146,1.117 -2.521,1.676 -4.125,1.676 -1.719,0 -3.115,-0.559 -4.189,-1.676 -1.091,-1.132 -1.642,-2.528 -1.657,-4.19 z" />
			<path
   style="fill:#747474;fill-opacity:1"
   inkscape:connector-curvature="0"
   id="path27"
   d="m 430.809,438.607 c 0,0.476 0.186,0.966 0.559,1.471 0.688,0.923 1.783,1.385 3.287,1.385 0.916,0 1.726,-0.215 2.428,-0.645 l 1.289,3.244 c -1.117,0.588 -2.356,0.881 -3.717,0.881 -2.148,0 -4.054,-0.787 -5.715,-2.363 -1.117,-1.146 -1.676,-2.463 -1.676,-3.953 0,-0.057 0,-0.114 0,-0.171 0,-2.67 1.37,-4.562 4.111,-5.675 l 8.736,-3.607 c 0,-1.36 -0.451,-2.503 -1.354,-3.427 -0.903,-0.924 -2.041,-1.386 -3.416,-1.386 -1.203,0 -2.264,0.451 -3.18,1.354 -0.889,0.874 -1.347,1.977 -1.375,3.309 v 0.301 l -3.438,1.525 v -1.891 c 0,-2.005 0.859,-3.924 2.578,-5.758 1.461,-1.547 3.309,-2.32 5.543,-2.32 2.234,0 4.139,0.788 5.715,2.363 1.575,1.576 2.363,3.48 2.363,5.715 v 14.48 l -3.438,1.504 v -12.054 l -7.085,2.883 c -1.476,0.707 -2.215,1.652 -2.215,2.835 z" />
			<path
   style="fill:#747474;fill-opacity:1"
   inkscape:connector-curvature="0"
   id="path29"
   d="m 448.757,444.943 v -15.984 c 0,-2.234 0.788,-4.139 2.363,-5.715 1.575,-1.575 3.48,-2.363 5.715,-2.363 2.277,0 4.189,0.788 5.736,2.363 1.59,1.633 2.385,3.538 2.385,5.715 v 0.086 l -3.438,1.504 v -1.525 c -0.028,-1.332 -0.487,-2.435 -1.375,-3.309 -0.917,-0.902 -1.998,-1.354 -3.244,-1.354 -1.304,0 -2.413,0.451 -3.33,1.354 -0.917,0.903 -1.375,1.984 -1.375,3.244 0,0.029 0,0.051 0,0.064 v 14.416 l -3.437,1.504 z" />
			<path
   style="fill:#747474;fill-opacity:1"
   inkscape:connector-curvature="0"
   id="path31"
   d="m 478.372,441.463 c 1.203,0 2.262,-0.451 3.18,-1.354 0.887,-0.873 1.346,-1.977 1.375,-3.309 v -0.3 l 3.438,-1.525 v 1.891 c 0,2.006 -0.859,3.925 -2.578,5.758 -1.461,1.547 -3.309,2.32 -5.543,2.32 -2.234,0 -4.141,-0.787 -5.715,-2.363 -1.576,-1.575 -2.363,-3.48 -2.363,-5.715 v -7.906 c 0,-2.234 0.787,-4.139 2.363,-5.715 1.574,-1.575 3.48,-2.363 5.715,-2.363 2.148,0 4.061,0.788 5.736,2.363 1.59,1.49 2.385,3.395 2.385,5.715 v 2.02 l -12.762,5.674 c 0,1.36 0.451,2.502 1.354,3.426 0.901,0.921 2.04,1.383 3.415,1.383 z m -0.258,-17.102 c -1.203,0 -2.256,0.451 -3.158,1.354 -0.902,0.903 -1.354,1.984 -1.354,3.244 0,0.029 0,0.051 0,0.064 v 3.867 l 9.303,-4.137 c -0.072,-1.205 -0.523,-2.218 -1.354,-3.036 -0.918,-0.904 -2.062,-1.356 -3.437,-1.356 z" />
		</g><g
   id="g33"
   enable-background="new    "
   transform="translate(14,-10)">
			<path
   style="fill:#405fa8"
   inkscape:connector-curvature="0"
   id="path35"
   d="m 216.036,428.284 c 0,-2.234 0.788,-4.139 2.363,-5.715 1.575,-1.575 3.48,-2.363 5.715,-2.363 2.235,0 4.146,0.788 5.736,2.363 1.59,1.576 2.385,3.48 2.385,5.715 v 7.906 c 0,2.234 -0.795,4.14 -2.385,5.715 -1.59,1.576 -3.502,2.363 -5.736,2.363 -2.234,0 -4.14,-0.787 -5.715,-2.363 -1.576,-1.575 -2.363,-3.48 -2.363,-5.715 v -7.906 z m 3.437,7.842 c 0,1.318 0.479,2.421 1.439,3.309 0.974,0.902 2.084,1.354 3.33,1.354 1.203,0 2.263,-0.451 3.18,-1.354 0.888,-0.873 1.346,-1.977 1.375,-3.309 v -7.777 c -0.029,-1.332 -0.487,-2.435 -1.375,-3.309 -0.917,-0.902 -2.062,-1.354 -3.438,-1.354 -1.203,0 -2.256,0.451 -3.158,1.354 -0.888,0.889 -1.339,1.948 -1.354,3.18 v 0.129 7.777 z" />
			<path
   style="fill:#405fa8"
   inkscape:connector-curvature="0"
   id="path37"
   d="m 238.543,452.669 v -24.385 c 0,-2.234 0.795,-4.139 2.385,-5.715 1.59,-1.575 3.502,-2.363 5.736,-2.363 2.234,0 4.139,0.788 5.715,2.363 1.575,1.576 2.363,3.48 2.363,5.715 v 7.906 c 0,2.234 -0.788,4.14 -2.363,5.715 -1.576,1.576 -3.48,2.363 -5.715,2.363 -1.762,0 -3.323,-0.486 -4.684,-1.461 v 8.357 l -3.437,1.505 z m 3.437,-16.543 c 0,1.318 0.479,2.421 1.439,3.309 0.974,0.902 2.084,1.354 3.33,1.354 1.203,0 2.263,-0.451 3.18,-1.354 0.888,-0.873 1.346,-1.977 1.375,-3.309 v -7.777 c -0.029,-1.332 -0.487,-2.435 -1.375,-3.309 -0.917,-0.902 -2.062,-1.354 -3.438,-1.354 -1.203,0 -2.256,0.451 -3.158,1.354 -0.888,0.889 -1.339,1.948 -1.354,3.18 v 0.129 7.777 z" />
			<path
   style="fill:#405fa8"
   inkscape:connector-curvature="0"
   id="path39"
   d="m 269.257,440.788 c 1.203,0 2.263,-0.451 3.18,-1.354 0.888,-0.873 1.346,-1.977 1.375,-3.309 v -0.301 l 3.438,-1.525 v 1.891 c 0,2.006 -0.859,3.925 -2.578,5.758 -1.461,1.547 -3.309,2.32 -5.543,2.32 -2.234,0 -4.14,-0.787 -5.715,-2.363 -1.576,-1.575 -2.363,-3.48 -2.363,-5.715 v -7.906 c 0,-2.234 0.788,-4.139 2.363,-5.715 1.575,-1.575 3.48,-2.363 5.715,-2.363 2.148,0 4.061,0.788 5.736,2.363 1.59,1.49 2.385,3.395 2.385,5.715 v 2.02 l -12.762,5.674 c 0,1.36 0.451,2.502 1.354,3.426 0.901,0.922 2.04,1.384 3.415,1.384 z m -0.258,-17.102 c -1.203,0 -2.256,0.451 -3.158,1.354 -0.902,0.903 -1.354,1.984 -1.354,3.244 0,0.029 0,0.051 0,0.064 v 3.867 l 9.303,-4.137 c -0.072,-1.205 -0.523,-2.218 -1.354,-3.036 -0.916,-0.904 -2.062,-1.356 -3.437,-1.356 z" />
			<path
   style="fill:#405fa8"
   inkscape:connector-curvature="0"
   id="path41"
   d="m 283.557,444.268 v -15.984 c 0,-2.234 0.788,-4.139 2.363,-5.715 1.575,-1.575 3.48,-2.363 5.715,-2.363 2.235,0 4.146,0.788 5.736,2.363 1.59,1.576 2.385,3.48 2.385,5.715 v 14.48 l -3.438,1.504 v -15.92 c -0.029,-1.332 -0.487,-2.435 -1.375,-3.309 -0.917,-0.902 -1.998,-1.354 -3.244,-1.354 -1.289,0 -2.399,0.459 -3.33,1.375 -0.917,0.889 -1.375,1.963 -1.375,3.223 0,0.029 0,0.051 0,0.064 v 14.416 l -3.437,1.505 z" />
		</g><g
   id="g43"
   enable-background="new    "
   transform="translate(14,-10)">
			<path
   style="fill:#747474;stroke:#747474;stroke-width:1.39999998000000003;stroke-opacity:1;fill-opacity:1"
   inkscape:connector-curvature="0"
   id="path45"
   d="m 216.036,428.284 c 0,-2.234 0.788,-4.139 2.363,-5.715 1.575,-1.575 3.48,-2.363 5.715,-2.363 2.235,0 4.146,0.788 5.736,2.363 1.59,1.576 2.385,3.48 2.385,5.715 v 7.906 c 0,2.234 -0.795,4.14 -2.385,5.715 -1.59,1.576 -3.502,2.363 -5.736,2.363 -2.234,0 -4.14,-0.787 -5.715,-2.363 -1.576,-1.575 -2.363,-3.48 -2.363,-5.715 v -7.906 z m 3.437,7.842 c 0,1.318 0.479,2.421 1.439,3.309 0.974,0.902 2.084,1.354 3.33,1.354 1.203,0 2.263,-0.451 3.18,-1.354 0.888,-0.873 1.346,-1.977 1.375,-3.309 v -7.777 c -0.029,-1.332 -0.487,-2.435 -1.375,-3.309 -0.917,-0.902 -2.062,-1.354 -3.438,-1.354 -1.203,0 -2.256,0.451 -3.158,1.354 -0.888,0.889 -1.339,1.948 -1.354,3.18 v 0.129 7.777 z" />
			<path
   style="fill:#747474;stroke:#747474;stroke-width:1.39999998000000003;stroke-opacity:1;fill-opacity:1"
   inkscape:connector-curvature="0"
   id="path47"
   d="m 238.543,452.669 v -24.385 c 0,-2.234 0.795,-4.139 2.385,-5.715 1.59,-1.575 3.502,-2.363 5.736,-2.363 2.234,0 4.139,0.788 5.715,2.363 1.575,1.576 2.363,3.48 2.363,5.715 v 7.906 c 0,2.234 -0.788,4.14 -2.363,5.715 -1.576,1.576 -3.48,2.363 -5.715,2.363 -1.762,0 -3.323,-0.486 -4.684,-1.461 v 8.357 l -3.437,1.505 z m 3.437,-16.543 c 0,1.318 0.479,2.421 1.439,3.309 0.974,0.902 2.084,1.354 3.33,1.354 1.203,0 2.263,-0.451 3.18,-1.354 0.888,-0.873 1.346,-1.977 1.375,-3.309 v -7.777 c -0.029,-1.332 -0.487,-2.435 -1.375,-3.309 -0.917,-0.902 -2.062,-1.354 -3.438,-1.354 -1.203,0 -2.256,0.451 -3.158,1.354 -0.888,0.889 -1.339,1.948 -1.354,3.18 v 0.129 7.777 z" />
			<path
   style="fill:#747474;stroke:#747474;stroke-width:1.39999998000000003;stroke-opacity:1;fill-opacity:1"
   inkscape:connector-curvature="0"
   id="path49"
   d="m 269.257,440.788 c 1.203,0 2.263,-0.451 3.18,-1.354 0.888,-0.873 1.346,-1.977 1.375,-3.309 v -0.301 l 3.438,-1.525 v 1.891 c 0,2.006 -0.859,3.925 -2.578,5.758 -1.461,1.547 -3.309,2.32 -5.543,2.32 -2.234,0 -4.14,-0.787 -5.715,-2.363 -1.576,-1.575 -2.363,-3.48 -2.363,-5.715 v -7.906 c 0,-2.234 0.788,-4.139 2.363,-5.715 1.575,-1.575 3.48,-2.363 5.715,-2.363 2.148,0 4.061,0.788 5.736,2.363 1.59,1.49 2.385,3.395 2.385,5.715 v 2.02 l -12.762,5.674 c 0,1.36 0.451,2.502 1.354,3.426 0.901,0.922 2.04,1.384 3.415,1.384 z m -0.258,-17.102 c -1.203,0 -2.256,0.451 -3.158,1.354 -0.902,0.903 -1.354,1.984 -1.354,3.244 0,0.029 0,0.051 0,0.064 v 3.867 l 9.303,-4.137 c -0.072,-1.205 -0.523,-2.218 -1.354,-3.036 -0.916,-0.904 -2.062,-1.356 -3.437,-1.356 z" />
			<path
   style="fill:#747474;stroke:#747474;stroke-width:1.39999998000000003;stroke-opacity:1;fill-opacity:1"
   inkscape:connector-curvature="0"
   id="path51"
   d="m 283.557,444.268 v -15.984 c 0,-2.234 0.788,-4.139 2.363,-5.715 1.575,-1.575 3.48,-2.363 5.715,-2.363 2.235,0 4.146,0.788 5.736,2.363 1.59,1.576 2.385,3.48 2.385,5.715 v 14.48 l -3.438,1.504 v -15.92 c -0.029,-1.332 -0.487,-2.435 -1.375,-3.309 -0.917,-0.902 -1.998,-1.354 -3.244,-1.354 -1.289,0 -2.399,0.459 -3.33,1.375 -0.917,0.889 -1.375,1.963 -1.375,3.223 0,0.029 0,0.051 0,0.064 v 14.416 l -3.437,1.505 z" />
		</g>
</g>
</svg>